<?xml version="1.0" standalone="no"?>
<!DOCTYPE svg PUBLIC "-//W3C//DTD SVG 20010904//EN"
 "http://www.w3.org/TR/2001/REC-SVG-20010904/DTD/svg10.dtd">
<svg version="1.0" xmlns="http://www.w3.org/2000/svg"
 width="260.000000pt" height="260.000000pt" viewBox="0 0 260.000000 260.000000"
 preserveAspectRatio="xMidYMid meet">
<metadata>
Created by potrace 1.11, written by Peter Selinger 2001-2013
</metadata>
<g transform="translate(0.000000,260.000000) scale(0.100000,-0.100000)"
fill="#000000" stroke="none">
<path d="M490 2115 l0 -485 -245 0 -245 0 0 -735 0 -735 245 0 245 0 0 -80 0
-80 240 0 240 0 0 80 0 80 245 0 245 0 0 245 0 245 245 0 245 0 0 -245 0 -245
245 0 245 0 0 -80 0 -80 80 0 80 0 0 80 0 80 -80 0 -80 0 0 245 0 245 -245 0
-245 0 0 245 0 245 245 0 245 0 0 245 0 245 80 0 80 0 0 240 0 240 -80 0 -80
0 0 245 0 245 -975 0 -975 0 0 -485z m1460 -245 l0 -240 -490 0 -490 0 0 -735
0 -735 -240 0 -240 0 0 735 0 735 240 0 240 0 0 240 0 240 490 0 490 0 0 -240z"/>
</g>
</svg>
